<?xml version="1.0" encoding="UTF-8" standalone="no" ?>
<!DOCTYPE svg PUBLIC "-//W3C//DTD SVG 1.1//EN" "http://www.w3.org/Graphics/SVG/1.1/DTD/svg11.dtd">
<svg xmlns="http://www.w3.org/2000/svg" xmlns:xlink="http://www.w3.org/1999/xlink" version="1.1" width="1280" height="1024" viewBox="0 0 1280 1024" xml:space="preserve">
<desc>Created with Fabric.js 5.3.0</desc>
<defs>
</defs>
<g transform="matrix(1 0 0 1 640 512)" id="background-logo"  >
<rect style="stroke: none; stroke-width: 0; stroke-dasharray: none; stroke-linecap: butt; stroke-dashoffset: 0; stroke-linejoin: miter; stroke-miterlimit: 4; fill: rgb(255,255,255); fill-opacity: 0; fill-rule: nonzero; opacity: 1;"  paint-order="stroke"  x="-640" y="-512" rx="0" ry="0" width="1280" height="1024" />
</g>
<g transform="matrix(1.9211538461538462 0 0 1.9211538461538462 620.8109276376947 478.25879165929354)" id="text-logo"  >
<g style=""  paint-order="stroke"   >
		<g transform="matrix(1 0 0 1 -5.684342e-14 2.842171e-14)" id="text-logo-path-0"  >
<path style="stroke: none; stroke-width: 0; stroke-dasharray: none; stroke-linecap: butt; stroke-dashoffset: 0; stroke-linejoin: miter; stroke-miterlimit: 4; fill: rgb(83,113,255); fill-rule: nonzero; opacity: 1;"  paint-order="stroke"  transform=" translate(-189.66, 32.155)" d="M 15.27 0 L 24.01 0 L 24.01 -31.83 L 38.55 -64.4 L 29.72 -64.4 L 19.5 -42.41 L 9.57 -64.31 L 0.74 -64.31 L 15.27 -31.46 Z M 42.96 0 L 74.43 0 L 74.43 -8.46 L 51.8 -8.46 L 51.8 -26.68 L 68.91 -30.36 L 68.91 -38.82 L 51.8 -35.14 L 51.8 -55.94 L 73.51 -55.94 L 73.51 -64.4 L 42.96 -64.4 Z M 79.58 0.09 L 88.41 0.09 L 88.41 -55.94 L 97.8 -55.94 L 104.51 -24.38 L 104.51 0 L 113.34 0 L 113.34 -25.12 L 104.97 -64.4 L 79.58 -64.4 Z M 120.7 0 L 152.17 0 L 152.17 -8.46 L 129.54 -8.46 L 129.54 -26.68 L 146.65 -30.36 L 146.65 -38.82 L 129.54 -35.14 L 129.54 -55.94 L 151.25 -55.94 L 151.25 -64.4 L 120.7 -64.4 Z M 155.85 0 L 186.3 0 L 186.3 -20.06 L 164.68 -47.93 L 164.68 -55.94 L 177.47 -55.94 L 177.47 -44.34 L 186.3 -46.18 L 186.3 -64.4 L 155.85 -64.4 L 155.85 -44.53 L 177.47 -16.65 L 177.47 -8.46 L 164.68 -8.46 L 164.68 -20.06 L 155.85 -18.22 Z M 198.63 0 L 222.09 0 L 222.09 -8.46 L 205.8 -8.46 L 199.55 -37.17 L 199.55 -55.94 L 213.81 -55.94 L 213.81 -44.34 L 222.64 -46.18 L 222.64 -64.4 L 190.72 -64.4 L 190.72 -36.16 Z M 253.74 0 L 262.57 0 L 262.57 -64.4 L 253.74 -64.4 L 253.74 -38.27 L 237.36 -34.68 L 237.36 -64.4 L 228.53 -64.4 L 228.53 0 L 237.36 0 L 237.36 -26.22 L 253.74 -29.81 Z M 274.9 0 L 304.15 0 L 304.15 -33.95 L 297.71 -64.4 L 268.46 -64.4 L 268.46 -30.45 Z M 282.16 -8.46 L 277.29 -31.19 L 277.29 -55.94 L 290.44 -55.94 L 295.32 -33.21 L 295.32 -8.46 Z M 315.01 0 L 344.26 0 L 344.26 -33.95 L 337.82 -64.4 L 308.57 -64.4 L 308.57 -30.45 Z M 322.28 -8.46 L 317.4 -31.19 L 317.4 -55.94 L 330.56 -55.94 L 335.43 -33.21 L 335.43 -8.46 Z M 350.15 0 L 378.58 0 L 378.58 -8.46 L 358.98 -8.46 L 358.98 -64.4 L 350.15 -64.4 Z" stroke-linecap="round" />
</g>
</g>
</g>
<g transform="matrix(0.9147206881323348 1.6894135560289625 -1.6894135560289627 0.9147206881323348 473.45422016946566 437.2406935568579)" id="tagline-7dfcb3ca-2c9d-4f44-ba55-5f136b1dd3e1-logo-0"  >
<g style=""  paint-order="stroke"   >
		<g transform="matrix(1 0 0 1 0 0)" id="f20f3d94-53ed-417b-9fe2-bac0f87864c7-path-0"  >
<path style="stroke: none; stroke-width: 0; stroke-dasharray: none; stroke-linecap: butt; stroke-dashoffset: 0; stroke-linejoin: miter; stroke-miterlimit: 4; fill: rgb(255,252,242); fill-rule: nonzero; opacity: 1;"  paint-order="stroke"  transform=" translate(-5.3500000000000005, 7.01)" d="M 4.96 -0.22 C 3.8 -0.22 2.64 -0.62 1.68 -1.36 C 1.02 -1.98 1.38 -2.52 1.76 -3.1 L 0.44 -1.96 C 1.62 -0.62 3.3 0.18 4.96 0.18 C 8.02 0.18 10.26 -1.18 10.26 -3.92 C 10.26 -8.18 2.86 -7.82 2.86 -11.28 C 2.86 -12.66 3.8 -13.8 5.44 -13.8 C 6.2 -13.8 6.92 -13.68 7.56 -13.44 C 8.36 -13 8.12 -12.42 7.88 -11.78 L 8.72 -12.88 L 8.92 -13.16 C 7.94 -13.82 6.76 -14.2 5.44 -14.2 C 2.5 -14.2 0.76 -12.68 0.76 -10.64 C 0.76 -6.28 8.16 -6.54 8.16 -3.16 C 8.16 -1.62 7 -0.22 4.96 -0.22 Z" stroke-linecap="round" />
</g>
</g>
</g>
<g transform="matrix(1.2586670546068155 1.4514094343909716 -1.4514094343909716 1.2586670546068155 496.9150196872549 471.1761293223143)" id="tagline-7dfcb3ca-2c9d-4f44-ba55-5f136b1dd3e1-logo-1"  >
<g style=""  paint-order="stroke"   >
		<g transform="matrix(1 0 0 1 0 0)" id="09d51783-6ca9-4bf2-b5f8-080b40f858d9-path-0"  >
<path style="stroke: none; stroke-width: 0; stroke-dasharray: none; stroke-linecap: butt; stroke-dashoffset: 0; stroke-linejoin: miter; stroke-miterlimit: 4; fill: rgb(255,252,242); fill-rule: nonzero; opacity: 1;"  paint-order="stroke"  transform=" translate(-2.76, 7)" d="M 0.44 0 L 5.08 0 C 4.42 -0.28 3.76 -0.52 3.76 -1.82 L 3.76 -12.18 C 3.76 -13.48 4.42 -13.72 5.08 -14 L 0.44 -14 C 1.1 -13.72 1.76 -13.48 1.76 -12.18 L 1.76 -1.82 C 1.76 -0.52 1.1 -0.28 0.44 0 Z" stroke-linecap="round" />
</g>
</g>
</g>
<g transform="matrix(1.5584146814378184 1.123465968007389 -1.123465968007389 1.5584146814378186 529.2528630799366 500.7280048271201)" id="tagline-7dfcb3ca-2c9d-4f44-ba55-5f136b1dd3e1-logo-2"  >
<g style=""  paint-order="stroke"   >
		<g transform="matrix(1 0 0 1 0 0)" id="63b57a60-e9a5-494d-ab09-81fb0e7823b1-path-0"  >
<path style="stroke: none; stroke-width: 0; stroke-dasharray: none; stroke-linecap: butt; stroke-dashoffset: 0; stroke-linejoin: miter; stroke-miterlimit: 4; fill: rgb(255,252,242); fill-rule: nonzero; opacity: 1;"  paint-order="stroke"  transform=" translate(-6.5600000000000005, 7)" d="M 10.56 0 L 11.36 0 L 11.36 -12.18 C 11.36 -13.48 12.02 -13.72 12.68 -14 L 9.64 -14 C 10.3 -13.72 10.96 -13.48 10.96 -12.18 L 10.96 -3.06 L 3.76 -14 L 0.44 -14 C 1.1 -13.72 1.76 -13.48 1.76 -12.18 L 1.76 -1.82 C 1.76 -0.52 1.1 -0.28 0.44 0 L 3.48 0 C 2.82 -0.28 2.16 -0.52 2.16 -1.82 L 2.16 -12.78 Z" stroke-linecap="round" />
</g>
</g>
</g>
<g transform="matrix(1.802648998765366 0.6642956328638164 -0.6642956328638164 1.802648998765366 574.4990403055352 524.7731586926602)" id="tagline-7dfcb3ca-2c9d-4f44-ba55-5f136b1dd3e1-logo-3"  >
<g style=""  paint-order="stroke"   >
		<g transform="matrix(1 0 0 1 0 0)" id="90ccf502-949e-49f9-aac0-978ebee3d2a8-path-0"  >
<path style="stroke: none; stroke-width: 0; stroke-dasharray: none; stroke-linecap: butt; stroke-dashoffset: 0; stroke-linejoin: miter; stroke-miterlimit: 4; fill: rgb(255,252,242); fill-rule: nonzero; opacity: 1;"  paint-order="stroke"  transform=" translate(-6.24, 7.01)" d="M 7.52 0.18 C 9.18 0.18 10.86 -0.62 12.04 -1.96 L 10.72 -3.1 C 11.04 -2.46 11.32 -1.9 10.34 -1.04 C 9.48 -0.5 8.5 -0.22 7.52 -0.22 C 4.38 -0.22 2.54 -3.1 2.54 -7.02 C 2.54 -11.06 4.5 -13.8 7.32 -13.8 C 8.08 -13.8 8.8 -13.68 9.44 -13.44 C 10.24 -13 10 -12.42 9.76 -11.78 L 10.6 -12.88 L 10.8 -13.16 C 9.82 -13.82 8.64 -14.2 7.32 -14.2 C 3.3 -14.2 0.44 -11.3 0.44 -7.02 C 0.44 -2.88 3.12 0.18 7.52 0.18 Z" stroke-linecap="round" />
</g>
</g>
</g>
<g transform="matrix(1.9133710589574646 0.17275210949711914 -0.1727521094971192 1.913371058957465 622.9750538067744 535.7135532557661)" id="tagline-7dfcb3ca-2c9d-4f44-ba55-5f136b1dd3e1-logo-4"  >
<g style=""  paint-order="stroke"   >
		<g transform="matrix(1 0 0 1 0 0)" id="1152df2e-3854-4e9a-b501-604ea7b4f787-path-0"  >
<path style="stroke: none; stroke-width: 0; stroke-dasharray: none; stroke-linecap: butt; stroke-dashoffset: 0; stroke-linejoin: miter; stroke-miterlimit: 4; fill: rgb(255,252,242); fill-rule: nonzero; opacity: 1;"  paint-order="stroke"  transform=" translate(-5.800000000000001, 7)" d="M 0.44 0 L 10.02 0 L 11.16 -2.28 C 10.3 -1.54 9.38 -0.4 7.3 -0.4 L 3.76 -0.4 L 3.76 -6.8 L 6.4 -6.8 C 7.7 -6.8 7.94 -6.14 8.22 -5.48 L 8.22 -8.52 C 7.94 -7.86 7.7 -7.2 6.4 -7.2 L 3.76 -7.2 L 3.76 -13.6 L 7.5 -13.6 C 9.44 -13.6 9.8 -12.62 10.22 -11.62 L 10.22 -14 L 0.44 -14 C 1.1 -13.72 1.76 -13.48 1.76 -12.18 L 1.76 -1.82 C 1.76 -0.52 1.1 -0.28 0.44 0 Z" stroke-linecap="round" />
</g>
</g>
</g>
<g transform="matrix(0.9922354881371197 -0.12437337368300223 0.12437337368300223 0.9922354881371197 340.11865136722406 278.6738054814506)" id="tagline-7dfcb3ca-2c9d-4f44-ba55-5f136b1dd3e1-logo-5"  >
<g style=""  paint-order="stroke"   >
		<g transform="matrix(1 0 0 1 0 0)" id="e1df5339-4c8c-4698-bab2-15fc0b9d12e1-path-0"  >
<path style="stroke: none; stroke-width: 0; stroke-dasharray: none; stroke-linecap: butt; stroke-dashoffset: 0; stroke-linejoin: miter; stroke-miterlimit: 4; fill: rgb(255,252,242); fill-rule: nonzero; opacity: 1;"  paint-order="stroke"  transform=" translate(0, 0)" d="" stroke-linecap="round" />
</g>
</g>
</g>
<g transform="matrix(1.8176312793644624 -0.6221323274574496 0.6221323274574496 1.8176312793644624 701.2665431228601 526.0975970279294)" id="tagline-7dfcb3ca-2c9d-4f44-ba55-5f136b1dd3e1-logo-6"  >
<g style=""  paint-order="stroke"   >
		<g transform="matrix(1 0 0 1 0 0)" id="2f50f40a-3e27-4774-ba91-f2c3b5d4bcec-path-0"  >
<path style="stroke: none; stroke-width: 0; stroke-dasharray: none; stroke-linecap: butt; stroke-dashoffset: 0; stroke-linejoin: miter; stroke-miterlimit: 4; fill: rgb(255,252,242); fill-rule: nonzero; opacity: 1;"  paint-order="stroke"  transform=" translate(-4.94, 7.1)" d="M 0.44 0 L 9.44 0 L 9.44 -2.38 C 9.02 -1.4 8.66 -0.4 6.72 -0.4 L 2.66 -0.4 C 2.96 -5.68 9.28 -6.18 9.28 -10.44 C 9.28 -12.48 7.34 -14.2 4.2 -14.2 C 2.88 -14.2 1.6 -13.44 0.72 -12.56 L 0.92 -12.28 L 1.76 -11.18 C 1.52 -11.82 1.24 -12.48 1.94 -13.06 C 2.6 -13.5 3.38 -13.8 4.2 -13.8 C 6.04 -13.8 7.18 -12.46 7.18 -11.08 C 7.18 -7.62 0.44 -6.74 0.44 0 Z" stroke-linecap="round" />
</g>
</g>
</g>
<g transform="matrix(1.6078465539258875 -1.0515044268191953 1.0515044268191953 1.6078465539258877 743.6884461161724 505.56356499037366)" id="tagline-7dfcb3ca-2c9d-4f44-ba55-5f136b1dd3e1-logo-7"  >
<g style=""  paint-order="stroke"   >
		<g transform="matrix(1 0 0 1 0 0)" id="d4bc0a45-9dd6-44e6-bf0a-a2c38aa9d6e0-path-0"  >
<path style="stroke: none; stroke-width: 0; stroke-dasharray: none; stroke-linecap: butt; stroke-dashoffset: 0; stroke-linejoin: miter; stroke-miterlimit: 4; fill: rgb(255,252,242); fill-rule: nonzero; opacity: 1;"  paint-order="stroke"  transform=" translate(-5.910000000000001, 7.01)" d="M 5.92 0.18 C 9.12 0.18 11.38 -2.74 11.38 -7.02 C 11.38 -11.14 9.3 -14.2 5.92 -14.2 C 2.7 -14.2 0.44 -11.3 0.44 -7.02 C 0.44 -2.88 2.52 0.18 5.92 0.18 Z M 5.92 -0.22 C 3.78 -0.22 2.54 -3.1 2.54 -7.02 C 2.54 -11.06 3.9 -13.8 5.92 -13.8 C 8.04 -13.8 9.28 -10.92 9.28 -7.02 C 9.28 -2.98 7.92 -0.22 5.92 -0.22 Z" stroke-linecap="round" />
</g>
</g>
</g>
<g transform="matrix(1.298576412479737 -1.4158147483138366 1.4158147483138366 1.298576412479737 779.4473789912396 474.98174434048474)" id="tagline-7dfcb3ca-2c9d-4f44-ba55-5f136b1dd3e1-logo-8"  >
<g style=""  paint-order="stroke"   >
		<g transform="matrix(1 0 0 1 0 0)" id="8ec391e4-f081-4afc-add5-71ef66a387a0-path-0"  >
<path style="stroke: none; stroke-width: 0; stroke-dasharray: none; stroke-linecap: butt; stroke-dashoffset: 0; stroke-linejoin: miter; stroke-miterlimit: 4; fill: rgb(255,252,242); fill-rule: nonzero; opacity: 1;"  paint-order="stroke"  transform=" translate(-4.94, 7.1)" d="M 0.44 0 L 9.44 0 L 9.44 -2.38 C 9.02 -1.4 8.66 -0.4 6.72 -0.4 L 2.66 -0.4 C 2.96 -5.68 9.28 -6.18 9.28 -10.44 C 9.28 -12.48 7.34 -14.2 4.2 -14.2 C 2.88 -14.2 1.6 -13.44 0.72 -12.56 L 0.92 -12.28 L 1.76 -11.18 C 1.52 -11.82 1.24 -12.48 1.94 -13.06 C 2.6 -13.5 3.38 -13.8 4.2 -13.8 C 6.04 -13.8 7.18 -12.46 7.18 -11.08 C 7.18 -7.62 0.44 -6.74 0.44 0 Z" stroke-linecap="round" />
</g>
</g>
</g>
<g transform="matrix(0.9171191222025712 -1.6881127380249523 1.6881127380249523 0.9171191222025712 806.4375895133517 437.4693495161407)" id="tagline-7dfcb3ca-2c9d-4f44-ba55-5f136b1dd3e1-logo-9"  >
<g style=""  paint-order="stroke"   >
		<g transform="matrix(1 0 0 1 0 0)" id="e3d6583e-5420-45b4-ba25-0a772f23a354-path-0"  >
<path style="stroke: none; stroke-width: 0; stroke-dasharray: none; stroke-linecap: butt; stroke-dashoffset: 0; stroke-linejoin: miter; stroke-miterlimit: 4; fill: rgb(255,252,242); fill-rule: nonzero; opacity: 1;"  paint-order="stroke"  transform=" translate(-5.48, 7.01)" d="M 5.92 0.18 C 8.78 0.18 10.52 -1.96 10.52 -4.42 C 10.52 -6.76 8.9 -9.02 5.92 -9.02 C 4.22 -9.02 3.04 -7.9 2.54 -6.46 L 2.54 -7.02 C 2.54 -11.06 3.9 -13.8 5.92 -13.8 C 6.96 -13.8 7.66 -13.52 8.22 -13.1 C 8.9 -12.48 8.6 -11.82 8.36 -11.18 L 9.2 -12.28 L 9.4 -12.56 C 8.48 -13.48 7.64 -14.2 5.92 -14.2 C 2.7 -14.2 0.44 -11.3 0.44 -7.02 C 0.44 -2.88 2.52 0.18 5.92 0.18 Z M 5.92 -0.22 C 4.2 -0.22 3.06 -2.1 2.68 -4.86 C 2.7 -6.82 3.88 -8.62 5.92 -8.62 C 7.66 -8.62 8.42 -6.58 8.42 -4.42 C 8.42 -2.18 7.58 -0.22 5.92 -0.22 Z" stroke-linecap="round" />
</g>
</g>
</g>
</svg>